<svg id="svg" 
	xmlns="http://www.w3.org/2000/svg" 
	xmlns:xlink="http://www.w3.org/1999/xlink" width="400" height="66.28440366972477" viewBox="0, 0, 400,66.28440366972477">
		<path id="path1" d="M17.417 0.110 C 17.233 0.154,16.847 0.297,16.558 0.428 C 16.269 0.559,15.985 0.667,15.926 0.667 C 14.374 0.667,12.236 4.684,12.719 6.693 C 12.923 7.538,12.276 7.495,24.929 7.498 L 36.275 7.500 36.638 7.114 C 37.026 6.701,37.157 5.139,36.854 4.539 C 36.773 4.380,36.583 3.987,36.430 3.667 C 35.800 2.340,35.112 1.499,34.338 1.108 C 33.768 0.820,33.242 0.542,32.792 0.292 C 32.420 0.085,18.225 -0.083,17.417 0.110 M91.667 0.105 C 91.162 0.143,90.600 0.240,90.417 0.322 C 90.233 0.404,89.410 0.557,88.586 0.664 C 87.763 0.770,87.013 0.918,86.920 0.993 C 86.826 1.068,86.431 1.182,86.042 1.246 C 85.652 1.310,85.333 1.431,85.333 1.515 C 85.333 1.598,85.149 1.667,84.925 1.667 C 84.700 1.667,84.306 1.751,84.050 1.854 C 83.275 2.166,82.944 2.290,82.333 2.501 C 81.618 2.748,80.613 3.214,80.500 3.352 C 80.454 3.407,80.135 3.554,79.792 3.677 C 79.448 3.800,79.167 3.951,79.167 4.014 C 79.167 4.077,79.035 4.171,78.875 4.223 C 78.715 4.276,78.283 4.510,77.917 4.744 C 77.550 4.978,77.006 5.282,76.708 5.420 C 76.410 5.558,76.167 5.745,76.167 5.836 C 76.167 5.926,76.083 6.000,75.981 6.000 C 75.880 6.000,75.438 6.300,75.000 6.667 C 74.562 7.033,74.120 7.333,74.018 7.333 C 73.769 7.333,68.502 12.623,68.493 12.881 C 68.490 12.992,68.265 13.343,67.993 13.660 C 67.722 13.978,67.500 14.326,67.500 14.434 C 67.500 14.542,67.387 14.674,67.250 14.727 C 67.112 14.780,67.000 14.905,67.000 15.006 C 67.000 15.107,66.794 15.457,66.542 15.785 C 66.095 16.366,65.837 16.819,65.020 18.455 C 64.159 20.178,63.833 20.934,63.833 21.211 C 63.833 21.370,63.767 21.500,63.685 21.500 C 63.604 21.500,63.485 21.781,63.420 22.125 C 63.356 22.469,63.245 22.825,63.174 22.917 C 63.102 23.008,62.953 23.496,62.843 24.000 C 62.733 24.504,62.576 25.067,62.494 25.250 C 62.290 25.709,62.000 27.430,62.000 28.183 C 62.000 28.529,61.908 28.836,61.794 28.874 C 61.520 28.965,61.505 37.017,61.778 37.358 C 61.878 37.482,62.056 38.352,62.173 39.292 C 62.291 40.231,62.442 41.000,62.508 41.000 C 62.575 41.000,62.721 41.488,62.834 42.085 C 62.946 42.682,63.098 43.208,63.171 43.253 C 63.245 43.298,63.355 43.635,63.417 44.001 C 63.479 44.367,63.586 44.667,63.655 44.667 C 63.724 44.667,63.884 44.985,64.012 45.375 C 64.140 45.765,64.575 46.721,64.978 47.500 C 65.382 48.279,65.796 49.085,65.898 49.290 C 66.000 49.496,66.140 49.665,66.208 49.665 C 66.277 49.666,66.333 49.753,66.333 49.859 C 66.333 49.965,66.521 50.298,66.750 50.598 C 66.979 50.899,67.167 51.198,67.167 51.263 C 67.167 51.329,67.429 51.703,67.750 52.094 C 68.071 52.486,68.333 52.849,68.333 52.902 C 68.333 52.954,68.558 53.212,68.833 53.475 C 69.108 53.738,69.333 54.019,69.333 54.099 C 69.333 54.279,73.195 58.167,73.374 58.167 C 73.445 58.167,74.039 58.617,74.694 59.167 C 75.349 59.717,75.953 60.167,76.037 60.167 C 76.120 60.167,76.449 60.365,76.766 60.607 C 77.444 61.124,77.800 61.325,79.867 62.358 C 82.164 63.506,82.907 63.833,83.219 63.833 C 83.374 63.833,83.500 63.896,83.500 63.973 C 83.500 64.051,83.931 64.209,84.458 64.325 C 84.985 64.442,85.492 64.595,85.583 64.666 C 85.675 64.737,86.087 64.850,86.500 64.917 C 86.912 64.983,87.329 65.101,87.425 65.178 C 87.521 65.255,88.308 65.404,89.175 65.510 C 90.041 65.615,90.919 65.781,91.126 65.879 C 91.598 66.103,99.156 66.112,99.310 65.889 C 99.369 65.804,100.233 65.645,101.230 65.536 C 102.227 65.427,103.127 65.271,103.230 65.188 C 103.333 65.105,103.754 64.983,104.167 64.917 C 104.579 64.850,104.992 64.741,105.083 64.674 C 105.175 64.607,105.625 64.453,106.083 64.332 C 106.542 64.210,107.065 64.011,107.245 63.889 C 107.426 63.767,107.681 63.667,107.810 63.667 C 108.320 63.667,112.226 61.704,113.127 60.996 C 113.357 60.815,113.621 60.667,113.714 60.667 C 113.806 60.667,114.190 60.416,114.566 60.109 C 114.942 59.803,115.339 59.521,115.448 59.484 C 116.338 59.180,122.651 52.879,122.664 52.282 C 122.665 52.207,122.928 51.795,123.248 51.365 C 123.567 50.935,123.886 50.505,123.956 50.408 C 124.498 49.663,126.530 45.592,126.824 44.663 C 126.954 44.253,127.115 43.842,127.182 43.750 C 127.249 43.658,127.356 43.302,127.420 42.958 C 127.485 42.615,127.593 42.333,127.662 42.333 C 127.731 42.333,127.881 41.752,127.994 41.042 C 128.108 40.331,128.258 39.675,128.327 39.583 C 128.543 39.300,128.833 36.090,128.833 33.994 L 128.833 32.000 108.250 32.000 L 87.667 32.000 87.667 37.667 L 87.667 43.333 100.511 43.333 L 113.356 43.333 113.011 43.817 C 112.822 44.084,112.667 44.376,112.667 44.466 C 112.667 44.557,112.554 44.674,112.417 44.727 C 112.279 44.780,112.167 44.946,112.167 45.096 C 112.167 45.454,107.454 50.167,107.096 50.167 C 106.946 50.167,106.780 50.279,106.727 50.417 C 106.674 50.554,106.552 50.667,106.456 50.667 C 106.360 50.667,106.049 50.835,105.766 51.042 C 105.482 51.248,104.987 51.543,104.667 51.698 C 103.563 52.230,102.157 52.833,102.021 52.833 C 101.946 52.833,101.667 52.939,101.401 53.068 C 101.134 53.197,100.504 53.355,100.000 53.420 C 99.496 53.484,98.978 53.623,98.849 53.727 C 98.523 53.992,90.536 53.993,90.369 53.729 C 90.304 53.626,89.706 53.450,89.042 53.339 C 88.377 53.228,87.833 53.077,87.833 53.003 C 87.833 52.930,87.588 52.824,87.289 52.768 C 86.990 52.712,86.109 52.331,85.331 51.921 C 84.553 51.511,83.673 51.061,83.375 50.919 C 83.077 50.778,82.833 50.588,82.833 50.498 C 82.833 50.407,82.748 50.333,82.643 50.333 C 82.436 50.333,80.667 48.891,80.450 48.546 C 80.377 48.429,80.221 48.333,80.104 48.333 C 79.877 48.333,79.167 47.649,79.167 47.430 C 79.167 47.358,78.908 47.025,78.592 46.691 C 77.653 45.698,77.061 44.954,76.702 44.315 C 76.517 43.983,76.264 43.533,76.141 43.315 C 76.017 43.096,75.879 42.879,75.833 42.833 C 75.657 42.656,75.000 41.341,75.000 41.166 C 75.000 41.065,74.857 40.667,74.682 40.283 C 74.507 39.898,74.309 39.283,74.243 38.917 C 74.177 38.550,74.064 38.175,73.992 38.083 C 73.921 37.992,73.808 37.371,73.742 36.705 C 73.677 36.038,73.558 35.452,73.478 35.403 C 73.398 35.354,73.333 34.160,73.333 32.750 C 73.333 31.340,73.398 30.146,73.478 30.097 C 73.558 30.048,73.675 29.481,73.738 28.837 C 73.802 28.193,73.961 27.460,74.092 27.208 C 74.224 26.956,74.332 26.560,74.332 26.329 C 74.333 26.097,74.430 25.760,74.547 25.579 C 74.665 25.398,74.860 24.950,74.980 24.583 C 75.282 23.663,75.839 22.500,75.978 22.500 C 76.042 22.500,76.182 22.294,76.291 22.042 C 76.537 21.468,76.774 21.100,77.458 20.222 C 77.756 19.840,78.000 19.480,78.000 19.422 C 78.000 19.234,80.720 16.641,81.833 15.767 C 82.921 14.913,83.255 14.695,84.333 14.133 C 84.654 13.965,85.029 13.767,85.167 13.693 C 86.193 13.135,86.831 12.858,87.333 12.752 C 87.654 12.684,87.992 12.569,88.083 12.496 C 88.175 12.424,88.737 12.272,89.333 12.158 C 89.929 12.045,90.522 11.869,90.651 11.768 C 90.974 11.513,98.526 11.513,98.849 11.768 C 98.978 11.869,99.571 12.045,100.167 12.158 C 100.763 12.272,101.325 12.422,101.417 12.493 C 101.508 12.563,101.808 12.674,102.083 12.739 C 102.580 12.856,104.007 13.498,104.167 13.676 C 104.212 13.727,104.513 13.872,104.833 13.997 C 105.154 14.122,105.616 14.362,105.859 14.529 C 106.102 14.696,106.376 14.833,106.466 14.833 C 106.557 14.833,106.674 14.946,106.727 15.083 C 106.780 15.221,106.946 15.333,107.096 15.333 C 107.247 15.333,108.458 16.422,109.788 17.752 L 112.207 20.170 119.277 20.127 L 126.347 20.083 125.511 18.500 C 125.051 17.629,124.560 16.673,124.419 16.375 C 124.278 16.077,124.088 15.833,123.998 15.833 C 123.907 15.833,123.833 15.753,123.833 15.656 C 123.833 15.558,123.646 15.232,123.417 14.931 C 123.188 14.631,123.000 14.331,123.000 14.264 C 123.000 14.197,122.906 14.037,122.792 13.908 C 122.677 13.779,122.283 13.292,121.917 12.826 C 121.148 11.849,117.646 8.361,116.417 7.349 C 115.958 6.971,115.465 6.551,115.319 6.414 C 115.174 6.278,115.000 6.167,114.933 6.167 C 114.866 6.167,114.565 5.979,114.265 5.750 C 113.964 5.521,113.632 5.333,113.526 5.333 C 113.420 5.333,113.333 5.269,113.333 5.190 C 113.333 5.058,112.735 4.724,110.417 3.561 C 109.958 3.331,109.321 3.007,109.000 2.842 C 108.679 2.677,108.173 2.489,107.875 2.424 C 107.577 2.360,107.333 2.250,107.333 2.180 C 107.333 2.110,106.918 1.960,106.410 1.846 C 105.902 1.733,105.283 1.534,105.035 1.404 C 104.786 1.275,104.382 1.168,104.135 1.168 C 103.888 1.167,103.645 1.099,103.594 1.017 C 103.543 0.935,102.845 0.779,102.043 0.671 C 101.240 0.563,100.441 0.397,100.266 0.303 C 99.944 0.129,93.383 -0.021,91.667 0.105 M156.259 0.370 C 156.117 0.574,156.000 0.870,156.000 1.027 C 156.000 1.185,155.925 1.360,155.833 1.417 C 155.742 1.473,155.583 1.853,155.480 2.260 C 155.378 2.667,155.234 3.000,155.160 3.000 C 155.087 3.000,154.974 3.244,154.911 3.542 C 154.847 3.840,154.702 4.271,154.589 4.500 C 154.182 5.326,153.853 6.095,153.645 6.708 C 153.529 7.052,153.382 7.333,153.321 7.333 C 153.259 7.333,153.163 7.558,153.108 7.833 C 153.053 8.108,152.856 8.667,152.671 9.074 C 152.485 9.482,152.333 9.932,152.333 10.074 C 152.333 10.217,152.270 10.333,152.193 10.333 C 152.116 10.333,151.951 10.652,151.827 11.042 C 151.702 11.431,151.510 11.900,151.400 12.083 C 151.290 12.267,151.149 12.660,151.086 12.958 C 151.024 13.256,150.904 13.500,150.820 13.500 C 150.736 13.500,150.667 13.623,150.667 13.773 C 150.667 13.924,150.509 14.393,150.315 14.815 C 150.122 15.238,149.853 15.846,149.718 16.167 C 149.582 16.487,149.365 16.962,149.236 17.222 C 149.106 17.481,149.000 17.760,149.000 17.842 C 149.000 17.923,148.811 18.404,148.580 18.909 C 148.349 19.414,148.114 20.054,148.059 20.331 C 148.004 20.607,147.901 20.833,147.831 20.833 C 147.760 20.833,147.654 21.040,147.594 21.292 C 147.498 21.700,147.217 22.354,146.576 23.667 C 146.463 23.896,146.320 24.327,146.256 24.625 C 146.192 24.923,146.071 25.167,145.987 25.167 C 145.902 25.167,145.833 25.290,145.833 25.440 C 145.833 25.590,145.675 26.059,145.482 26.482 C 144.967 27.607,144.728 28.179,144.495 28.833 C 144.382 29.154,144.081 29.867,143.827 30.417 C 143.573 30.967,143.315 31.604,143.255 31.833 C 143.194 32.063,143.036 32.494,142.905 32.792 C 142.774 33.090,142.565 33.577,142.440 33.875 C 142.316 34.173,142.053 34.762,141.857 35.185 C 141.661 35.607,141.500 36.005,141.500 36.069 C 141.500 36.133,141.355 36.502,141.179 36.890 C 141.002 37.278,140.803 37.817,140.737 38.089 C 140.670 38.361,140.571 38.621,140.516 38.667 C 140.355 38.802,139.874 39.865,139.661 40.558 C 139.552 40.910,139.360 41.398,139.233 41.641 C 139.106 41.884,139.002 42.150,139.001 42.232 C 139.000 42.313,138.839 42.726,138.643 43.148 C 138.447 43.571,138.175 44.179,138.039 44.500 C 137.904 44.821,137.689 45.296,137.563 45.555 C 137.437 45.815,137.333 46.110,137.333 46.211 C 137.333 46.312,137.191 46.700,137.016 47.072 C 136.587 47.991,136.247 48.801,135.998 49.500 C 135.797 50.064,135.508 50.751,134.939 52.025 C 134.789 52.360,134.667 52.754,134.667 52.900 C 134.667 53.047,134.598 53.167,134.513 53.167 C 134.429 53.167,134.307 53.410,134.242 53.708 C 134.178 54.006,133.993 54.512,133.833 54.833 C 133.297 55.902,133.013 56.579,132.904 57.042 C 132.845 57.294,132.730 57.500,132.649 57.500 C 132.567 57.500,132.500 57.626,132.500 57.781 C 132.500 57.935,132.360 58.366,132.188 58.739 C 132.017 59.112,131.784 59.679,131.671 60.000 C 131.466 60.579,131.338 60.882,130.677 62.344 C 130.488 62.763,130.333 63.232,130.333 63.386 C 130.333 63.540,130.264 63.667,130.180 63.667 C 130.096 63.667,129.976 63.910,129.914 64.208 C 129.851 64.506,129.708 64.900,129.594 65.083 C 129.481 65.267,129.345 65.585,129.293 65.792 L 129.198 66.167 136.175 66.167 L 143.152 66.167 143.261 65.583 C 143.321 65.262,143.425 65.000,143.492 65.000 C 143.559 65.000,143.709 64.569,143.825 64.042 C 143.942 63.515,144.098 63.007,144.173 62.914 C 144.248 62.822,144.400 62.372,144.512 61.914 C 144.623 61.457,144.772 61.008,144.842 60.917 C 144.913 60.825,145.023 60.469,145.087 60.125 C 145.151 59.781,145.258 59.500,145.325 59.500 C 145.392 59.500,145.542 59.069,145.659 58.542 C 145.775 58.015,145.932 57.507,146.006 57.414 C 146.081 57.322,146.231 56.890,146.341 56.456 C 146.450 56.022,146.597 55.667,146.668 55.667 C 146.738 55.667,146.849 55.385,146.913 55.042 C 146.977 54.698,147.087 54.342,147.158 54.250 C 147.228 54.158,147.377 53.709,147.488 53.252 C 147.600 52.795,147.752 52.345,147.827 52.252 C 147.902 52.159,148.058 51.652,148.175 51.125 C 148.291 50.598,148.441 50.167,148.508 50.167 C 148.575 50.167,148.682 49.885,148.746 49.542 C 148.954 48.428,148.136 48.500,160.589 48.500 L 171.971 48.500 172.083 49.166 C 172.145 49.532,172.264 49.874,172.348 49.926 C 172.432 49.977,172.500 50.146,172.501 50.302 C 172.502 50.457,172.608 50.787,172.738 51.035 C 172.868 51.284,173.063 51.922,173.172 52.452 C 173.280 52.983,173.427 53.492,173.496 53.583 C 173.566 53.675,173.715 54.144,173.828 54.626 C 173.941 55.107,174.094 55.539,174.169 55.585 C 174.243 55.631,174.355 55.968,174.417 56.334 C 174.479 56.700,174.590 57.000,174.664 57.000 C 174.737 57.000,174.878 57.458,174.977 58.018 C 175.076 58.579,175.225 59.122,175.309 59.227 C 175.393 59.331,175.516 59.679,175.583 60.000 C 175.650 60.321,175.766 60.659,175.840 60.752 C 175.915 60.845,176.067 61.295,176.178 61.752 C 176.290 62.209,176.434 62.658,176.499 62.750 C 176.564 62.842,176.713 63.385,176.831 63.958 C 176.949 64.531,177.102 65.000,177.171 65.000 C 177.240 65.000,177.345 65.262,177.406 65.583 L 177.515 66.167 184.492 66.167 C 192.373 66.167,191.705 66.300,190.979 64.875 C 190.807 64.539,190.667 64.129,190.667 63.965 C 190.667 63.801,190.598 63.667,190.513 63.667 C 190.429 63.667,190.308 63.423,190.244 63.125 C 190.180 62.827,190.036 62.396,189.923 62.167 C 189.516 61.341,189.187 60.572,188.979 59.958 C 188.862 59.615,188.718 59.333,188.660 59.333 C 188.601 59.333,188.454 58.921,188.333 58.417 C 188.212 57.912,188.054 57.500,187.981 57.500 C 187.908 57.500,187.799 57.237,187.739 56.917 C 187.679 56.596,187.569 56.333,187.495 56.333 C 187.421 56.333,187.308 56.090,187.245 55.792 C 187.182 55.494,186.997 55.025,186.833 54.750 C 186.670 54.475,186.484 54.006,186.421 53.708 C 186.358 53.410,186.238 53.167,186.153 53.167 C 186.069 53.167,186.000 53.050,186.000 52.908 C 186.000 52.765,185.848 52.315,185.662 51.908 C 185.477 51.500,185.280 50.942,185.225 50.667 C 185.170 50.392,185.065 50.167,184.992 50.167 C 184.919 50.167,184.807 49.923,184.742 49.625 C 184.678 49.327,184.471 48.783,184.283 48.417 C 183.598 47.081,183.500 46.862,183.500 46.673 C 183.500 46.568,183.346 46.130,183.158 45.699 C 182.969 45.269,182.751 44.767,182.673 44.583 C 182.594 44.400,182.383 43.913,182.203 43.500 C 182.024 43.087,181.784 42.487,181.671 42.167 C 181.440 41.514,181.062 40.639,180.725 39.974 C 180.601 39.731,180.500 39.439,180.500 39.326 C 180.500 39.213,180.342 38.774,180.149 38.352 C 179.955 37.929,179.686 37.321,179.549 37.000 C 179.412 36.679,179.203 36.192,179.085 35.917 C 178.966 35.642,178.776 35.154,178.663 34.833 C 178.549 34.512,178.316 33.945,178.145 33.572 C 177.974 33.200,177.833 32.768,177.833 32.614 C 177.833 32.460,177.766 32.333,177.685 32.333 C 177.603 32.333,177.488 32.127,177.429 31.875 C 177.327 31.440,177.078 30.836,176.563 29.778 C 176.437 29.519,176.333 29.237,176.333 29.151 C 176.333 29.007,176.080 28.398,175.336 26.750 C 175.170 26.383,174.984 25.896,174.922 25.667 C 174.861 25.438,174.703 25.006,174.572 24.708 C 174.441 24.410,174.232 23.923,174.107 23.625 C 173.983 23.327,173.728 22.746,173.541 22.333 C 173.354 21.921,173.147 21.396,173.080 21.167 C 173.014 20.938,172.903 20.675,172.835 20.583 C 172.766 20.492,172.620 20.117,172.509 19.750 C 172.399 19.383,172.206 18.858,172.081 18.583 C 171.956 18.308,171.709 17.746,171.532 17.333 C 171.356 16.921,171.088 16.309,170.939 15.975 C 170.789 15.640,170.667 15.277,170.667 15.167 C 170.667 15.058,170.558 14.769,170.426 14.526 C 170.128 13.978,169.762 13.114,169.480 12.292 C 169.363 11.948,169.216 11.667,169.154 11.667 C 169.092 11.667,168.997 11.442,168.942 11.167 C 168.851 10.715,168.632 10.164,167.905 8.558 C 167.774 8.269,167.667 7.978,167.667 7.910 C 167.667 7.842,167.509 7.441,167.315 7.018 C 167.122 6.596,166.862 6.025,166.738 5.750 C 166.613 5.475,166.463 5.044,166.404 4.792 C 166.345 4.540,166.240 4.333,166.169 4.333 C 166.099 4.333,165.996 4.107,165.941 3.831 C 165.886 3.554,165.651 2.914,165.420 2.409 C 165.189 1.904,165.000 1.442,165.000 1.383 C 165.000 1.324,164.869 0.991,164.708 0.642 L 164.417 0.009 160.468 0.004 C 156.574 0.000,156.515 0.005,156.259 0.370 M197.500 33.083 L 197.500 66.167 204.250 66.167 L 211.000 66.167 211.000 43.755 C 211.000 20.583,210.997 20.690,211.618 21.878 C 211.725 22.083,211.966 22.550,212.154 22.917 C 212.342 23.283,212.587 23.733,212.699 23.917 C 213.495 25.219,213.952 25.963,214.131 26.250 C 214.246 26.433,214.458 26.846,214.603 27.167 C 214.748 27.488,214.965 27.863,215.086 28.000 C 215.323 28.270,215.949 29.347,216.491 30.417 C 216.838 31.100,217.186 31.686,217.333 31.833 C 217.430 31.930,217.765 32.504,218.208 33.333 C 218.380 33.654,218.743 34.292,219.015 34.750 C 219.287 35.208,219.553 35.715,219.607 35.875 C 219.661 36.035,219.763 36.167,219.833 36.167 C 219.904 36.167,220.005 36.298,220.059 36.458 C 220.113 36.619,220.380 37.125,220.652 37.583 C 220.924 38.042,221.287 38.679,221.458 39.000 C 221.902 39.829,222.237 40.403,222.333 40.500 C 222.478 40.645,222.826 41.227,223.179 41.917 C 223.678 42.891,224.081 43.602,224.529 44.300 C 225.158 45.280,225.322 45.556,225.539 46.000 C 225.652 46.229,225.782 46.454,225.830 46.500 C 225.929 46.595,226.254 47.150,226.708 48.000 C 226.880 48.321,227.243 48.958,227.515 49.417 C 227.787 49.875,228.053 50.381,228.107 50.542 C 228.161 50.702,228.263 50.833,228.333 50.833 C 228.404 50.833,228.505 50.965,228.559 51.125 C 228.613 51.285,228.880 51.792,229.152 52.250 C 229.424 52.708,229.787 53.346,229.958 53.667 C 230.402 54.496,230.737 55.070,230.833 55.167 C 230.978 55.312,231.326 55.894,231.679 56.583 C 232.178 57.557,232.581 58.269,233.029 58.966 C 233.734 60.065,233.836 60.241,234.105 60.831 C 234.251 61.150,234.519 61.600,234.700 61.831 C 234.882 62.061,235.139 62.475,235.271 62.750 C 235.403 63.025,235.695 63.550,235.919 63.917 C 236.143 64.283,236.420 64.771,236.535 65.000 C 236.650 65.229,236.788 65.454,236.842 65.500 C 236.896 65.546,236.989 65.715,237.049 65.875 C 237.149 66.146,237.630 66.167,243.911 66.167 L 250.667 66.167 250.667 33.083 L 250.667 0.000 243.917 0.000 L 237.167 0.000 237.167 22.411 C 237.167 41.564,237.133 44.810,236.933 44.733 C 236.805 44.684,236.657 44.518,236.604 44.363 C 236.552 44.209,236.287 43.708,236.015 43.250 C 235.743 42.792,235.380 42.154,235.208 41.833 C 234.765 41.004,234.430 40.430,234.333 40.333 C 234.167 40.167,233.821 39.570,233.562 39.003 C 233.416 38.684,233.148 38.234,232.966 38.003 C 232.785 37.772,232.527 37.358,232.394 37.083 C 232.261 36.808,231.933 36.208,231.665 35.750 C 231.397 35.292,231.129 34.785,231.069 34.625 C 231.010 34.465,230.904 34.333,230.833 34.333 C 230.763 34.333,230.661 34.202,230.607 34.042 C 230.553 33.881,230.287 33.375,230.015 32.917 C 229.743 32.458,229.380 31.821,229.208 31.500 C 228.754 30.650,228.429 30.095,228.330 30.000 C 228.282 29.954,228.150 29.729,228.036 29.500 C 227.922 29.271,227.655 28.783,227.443 28.417 C 226.898 27.477,226.402 26.613,226.141 26.148 C 226.017 25.929,225.878 25.712,225.830 25.667 C 225.782 25.621,225.651 25.396,225.538 25.167 C 225.425 24.938,225.111 24.375,224.841 23.917 C 224.570 23.458,224.177 22.746,223.966 22.333 C 223.756 21.921,223.530 21.543,223.465 21.494 C 223.400 21.445,223.110 20.958,222.821 20.411 C 222.533 19.864,222.128 19.192,221.923 18.917 C 221.718 18.642,221.448 18.135,221.325 17.792 C 221.201 17.448,221.045 17.167,220.979 17.167 C 220.912 17.167,220.662 16.754,220.424 16.250 C 220.185 15.746,219.932 15.333,219.862 15.333 C 219.791 15.333,219.634 15.057,219.512 14.720 C 219.390 14.382,219.224 14.026,219.143 13.928 C 218.810 13.526,218.212 12.535,217.853 11.792 C 217.642 11.356,217.417 11.000,217.352 11.000 C 217.287 11.000,217.133 10.719,217.010 10.375 C 216.887 10.031,216.731 9.712,216.662 9.667 C 216.513 9.567,215.603 7.980,215.233 7.177 C 215.088 6.862,214.796 6.375,214.585 6.094 C 214.373 5.813,213.956 5.115,213.658 4.542 C 213.360 3.969,213.058 3.500,212.988 3.500 C 212.917 3.500,212.810 3.275,212.750 3.000 C 212.690 2.725,212.590 2.499,212.528 2.499 C 212.467 2.498,212.333 2.329,212.230 2.124 C 211.042 -0.258,212.013 0.000,204.224 0.000 L 197.500 0.000 197.500 33.083 M262.333 33.083 L 262.333 66.167 279.917 66.167 L 297.500 66.167 297.500 59.750 L 297.500 53.333 286.000 53.333 L 274.500 53.333 274.500 46.500 L 274.500 39.667 285.417 39.667 L 296.333 39.667 296.333 33.251 L 296.333 26.836 285.458 26.793 L 274.583 26.750 274.540 19.792 L 274.496 12.833 285.998 12.833 L 297.500 12.833 297.500 6.417 L 297.500 0.000 279.917 0.000 L 262.333 0.000 262.333 33.083 M321.083 0.104 C 320.808 0.145,320.433 0.246,320.250 0.328 C 320.067 0.410,319.577 0.522,319.162 0.577 C 318.747 0.631,318.209 0.779,317.965 0.906 C 317.722 1.032,317.292 1.186,317.011 1.248 C 316.730 1.309,316.500 1.429,316.500 1.513 C 316.500 1.598,316.366 1.667,316.202 1.667 C 315.763 1.667,314.365 2.412,313.309 3.208 C 312.975 3.460,312.659 3.667,312.607 3.667 C 312.382 3.667,309.473 6.471,308.960 7.182 C 308.801 7.403,308.420 7.921,308.114 8.333 C 307.572 9.063,306.500 11.167,306.500 11.500 C 306.500 11.592,306.432 11.667,306.348 11.667 C 306.264 11.667,306.145 11.966,306.083 12.332 C 306.022 12.699,305.909 13.036,305.834 13.083 C 305.758 13.130,305.603 13.711,305.488 14.376 C 305.374 15.040,305.211 15.674,305.126 15.784 C 304.920 16.052,304.927 21.460,305.134 21.716 C 305.223 21.826,305.350 22.329,305.415 22.833 C 305.481 23.337,305.633 23.975,305.754 24.250 C 305.875 24.525,306.024 24.938,306.086 25.167 C 306.355 26.165,307.935 29.133,308.375 29.465 C 308.535 29.586,308.667 29.786,308.667 29.909 C 308.667 30.160,311.445 33.000,311.690 33.000 C 311.777 33.000,312.238 33.287,312.715 33.638 C 313.815 34.445,317.343 36.167,317.900 36.167 C 318.047 36.167,318.167 36.233,318.167 36.314 C 318.167 36.394,318.522 36.550,318.956 36.659 C 319.390 36.769,319.822 36.919,319.914 36.994 C 320.007 37.068,320.533 37.225,321.083 37.342 C 321.633 37.459,322.158 37.610,322.250 37.676 C 322.342 37.743,322.867 37.888,323.417 38.000 C 323.967 38.112,324.492 38.261,324.583 38.333 C 324.675 38.404,325.069 38.515,325.458 38.579 C 325.848 38.643,326.167 38.752,326.167 38.821 C 326.167 38.890,326.573 39.038,327.069 39.149 C 327.565 39.260,328.013 39.459,328.064 39.592 C 328.115 39.725,328.266 39.833,328.400 39.833 C 329.187 39.833,331.504 42.880,331.762 44.253 C 331.822 44.574,331.938 44.878,332.019 44.928 C 332.100 44.979,332.167 45.836,332.167 46.833 C 332.167 47.831,332.100 48.688,332.019 48.738 C 331.938 48.789,331.822 49.092,331.762 49.414 C 331.582 50.373,330.808 51.682,329.833 52.676 C 328.976 53.551,328.530 53.869,327.500 54.341 C 327.271 54.446,326.827 54.656,326.513 54.808 C 325.782 55.161,321.489 55.217,321.375 54.875 C 321.337 54.760,321.173 54.667,321.011 54.667 C 320.622 54.667,319.120 53.865,318.950 53.567 C 318.877 53.439,318.723 53.333,318.609 53.333 C 318.371 53.333,317.366 52.286,317.010 51.667 C 316.111 50.102,315.804 49.370,315.727 48.610 C 315.679 48.137,315.559 47.581,315.459 47.375 L 315.277 47.000 308.889 47.000 L 302.500 47.000 302.500 47.407 C 302.500 47.631,302.575 47.860,302.667 47.917 C 302.758 47.973,302.833 48.301,302.833 48.646 C 302.833 49.502,303.137 51.143,303.408 51.750 C 303.531 52.025,303.680 52.479,303.738 52.759 C 303.873 53.399,305.037 55.715,305.586 56.435 C 305.814 56.733,306.000 57.055,306.000 57.150 C 306.000 57.244,306.150 57.402,306.333 57.500 C 306.517 57.598,306.667 57.771,306.667 57.884 C 306.667 58.117,309.842 61.333,310.072 61.333 C 310.155 61.333,310.341 61.448,310.486 61.588 C 311.332 62.402,315.036 64.500,315.630 64.500 C 315.721 64.500,316.010 64.612,316.273 64.749 C 316.535 64.886,316.866 64.998,317.008 64.999 C 317.150 65.000,317.340 65.073,317.429 65.162 C 317.518 65.251,318.189 65.411,318.920 65.517 C 319.652 65.623,320.344 65.785,320.459 65.876 C 320.749 66.107,326.724 66.108,327.207 65.878 C 327.414 65.780,328.146 65.608,328.833 65.497 C 329.521 65.386,330.158 65.237,330.250 65.167 C 330.342 65.096,330.677 64.983,330.995 64.915 C 331.312 64.847,331.687 64.731,331.828 64.657 C 331.968 64.584,332.833 64.169,333.750 63.736 C 334.667 63.303,335.690 62.735,336.024 62.474 C 336.358 62.213,336.722 62.000,336.833 62.000 C 336.944 62.000,338.062 60.969,339.318 59.708 C 341.478 57.539,342.035 56.805,343.078 54.750 C 343.264 54.383,343.460 54.046,343.512 54.000 C 343.565 53.954,343.706 53.558,343.827 53.121 C 343.947 52.683,344.104 52.289,344.174 52.245 C 344.245 52.201,344.392 51.622,344.501 50.958 C 344.610 50.294,344.782 49.578,344.882 49.367 C 345.122 48.863,345.120 43.598,344.880 43.300 C 344.783 43.181,344.651 42.671,344.586 42.167 C 344.522 41.662,344.363 41.032,344.234 40.766 C 344.105 40.500,344.000 40.214,344.000 40.131 C 344.000 39.955,343.134 38.124,342.993 38.000 C 342.941 37.954,342.792 37.654,342.663 37.333 C 342.534 37.012,342.371 36.675,342.299 36.583 C 341.279 35.273,340.833 34.653,340.833 34.543 C 340.833 34.367,338.117 31.667,337.940 31.667 C 337.864 31.667,337.496 31.404,337.121 31.083 C 336.747 30.763,336.341 30.500,336.220 30.500 C 336.099 30.500,336.000 30.429,336.000 30.342 C 336.000 30.195,335.656 29.971,334.667 29.474 C 334.438 29.359,333.950 29.068,333.583 28.829 C 333.217 28.589,332.654 28.290,332.333 28.164 C 332.012 28.039,331.712 27.894,331.667 27.843 C 331.548 27.710,330.073 27.000,329.917 27.000 C 329.845 27.000,329.441 26.842,329.018 26.649 C 328.596 26.455,328.025 26.196,327.750 26.071 C 327.475 25.947,327.025 25.793,326.750 25.729 C 326.475 25.666,326.100 25.521,325.917 25.407 C 325.733 25.293,325.321 25.146,325.000 25.080 C 324.679 25.015,324.341 24.901,324.248 24.826 C 324.155 24.752,323.724 24.602,323.289 24.493 C 322.855 24.383,322.500 24.228,322.500 24.147 C 322.500 24.066,322.368 24.000,322.207 24.000 C 321.825 24.000,320.289 23.187,320.117 22.894 C 320.043 22.769,319.872 22.667,319.736 22.667 C 319.601 22.667,319.440 22.535,319.380 22.375 C 319.320 22.215,319.178 22.008,319.065 21.917 C 317.044 20.277,317.268 15.783,319.487 13.445 C 321.628 11.190,326.379 10.797,327.993 12.742 C 328.111 12.884,328.311 13.000,328.437 13.000 C 328.563 13.000,328.667 13.072,328.667 13.161 C 328.667 13.249,328.878 13.568,329.136 13.869 C 329.861 14.714,330.345 15.822,330.451 16.875 L 330.546 17.833 336.523 17.833 L 342.500 17.833 342.500 16.833 C 342.500 16.283,342.442 15.833,342.371 15.833 C 342.300 15.833,342.151 15.261,342.039 14.561 C 341.928 13.861,341.768 13.205,341.683 13.103 C 341.599 13.000,341.477 12.635,341.413 12.292 C 341.349 11.948,341.242 11.667,341.175 11.667 C 341.108 11.667,340.954 11.367,340.833 11.000 C 340.712 10.633,340.565 10.333,340.507 10.333 C 340.448 10.333,340.299 10.052,340.176 9.708 C 339.778 8.601,336.293 4.333,335.787 4.333 C 335.700 4.333,335.271 4.033,334.833 3.667 C 334.395 3.300,333.954 3.000,333.852 3.000 C 333.750 3.000,333.666 2.944,333.665 2.875 C 333.665 2.806,333.496 2.666,333.290 2.562 C 333.085 2.459,332.482 2.146,331.950 1.866 C 331.419 1.585,330.762 1.307,330.490 1.248 C 330.219 1.188,329.784 1.033,329.523 0.903 C 329.263 0.773,328.682 0.619,328.233 0.561 C 327.784 0.502,327.318 0.376,327.197 0.280 C 326.974 0.105,322.034 -0.038,321.083 0.104 M352.500 33.083 L 352.500 66.167 358.750 66.167 L 365.000 66.167 365.000 52.917 L 365.000 39.667 376.000 39.667 L 387.000 39.667 387.000 52.917 L 387.000 66.167 393.500 66.167 L 400.000 66.167 400.000 33.083 L 400.000 0.000 393.501 -0.000 L 387.002 -0.000 386.959 13.375 L 386.917 26.750 375.958 26.793 L 365.000 26.836 365.000 13.418 L 365.000 0.000 358.750 0.000 L 352.500 0.000 352.500 33.083 M17.250 9.500 C 17.193 9.592,16.899 9.667,16.597 9.667 C 16.285 9.667,15.781 9.847,15.433 10.083 C 15.095 10.313,14.762 10.500,14.692 10.500 C 14.494 10.500,13.500 11.577,13.500 11.791 C 13.500 11.897,13.402 12.043,13.283 12.117 C 13.019 12.279,12.667 13.433,12.667 14.135 C 12.667 14.416,12.592 14.693,12.500 14.750 C 12.291 14.879,12.268 60.940,12.476 61.069 C 12.555 61.117,12.661 61.560,12.711 62.052 C 12.820 63.101,13.728 64.668,14.457 65.064 C 14.710 65.201,15.254 65.486,15.667 65.698 L 16.417 66.083 24.917 66.083 C 34.176 66.083,33.724 66.125,34.906 65.157 C 35.841 64.390,36.241 63.871,36.512 63.072 C 36.635 62.712,36.794 62.345,36.867 62.258 C 36.940 62.171,37.000 57.385,37.000 51.622 L 37.000 41.144 36.393 40.572 L 35.787 40.000 32.431 40.000 L 29.076 40.000 28.455 40.512 L 27.833 41.024 27.833 48.736 C 27.833 57.731,27.980 57.050,26.061 56.966 L 24.917 56.917 24.868 49.250 C 24.809 40.188,24.800 40.268,26.185 37.829 C 26.428 37.401,27.599 36.167,27.761 36.167 C 27.813 36.167,28.101 35.979,28.402 35.750 C 28.702 35.521,29.035 35.333,29.141 35.333 C 29.247 35.333,29.333 35.264,29.333 35.180 C 29.333 34.873,31.634 34.446,33.811 34.349 L 36.038 34.250 36.519 33.673 L 37.000 33.096 37.000 23.391 C 37.000 17.928,36.935 13.646,36.852 13.595 C 36.771 13.545,36.657 13.249,36.598 12.938 C 36.348 11.604,34.530 9.915,33.147 9.732 C 32.699 9.672,32.333 9.558,32.333 9.479 C 32.333 9.269,17.379 9.290,17.250 9.500 M2.083 9.965 C 1.362 10.223,0.733 10.657,0.375 11.144 L -0.000 11.653 -0.000 22.077 L 0.000 32.500 0.833 32.500 L 1.667 32.500 1.667 22.572 C 1.667 12.598,1.700 12.000,2.256 12.000 C 2.390 12.000,2.500 11.925,2.500 11.833 C 2.500 11.742,2.725 11.667,3.000 11.667 C 3.275 11.667,3.500 11.731,3.500 11.810 C 3.500 11.889,3.887 11.999,4.359 12.055 C 6.210 12.275,8.158 14.297,8.490 16.344 C 8.596 16.995,8.665 21.002,8.665 26.542 L 8.667 35.667 4.333 35.667 L 0.000 35.667 -0.000 47.221 L -0.000 58.775 0.386 59.138 C 0.598 59.337,0.893 59.500,1.043 59.500 C 1.192 59.500,1.360 59.575,1.417 59.667 C 1.546 59.875,2.408 59.884,2.794 59.681 C 2.953 59.597,3.513 59.442,4.038 59.337 C 5.043 59.134,6.224 58.578,7.074 57.905 C 7.354 57.684,7.751 57.371,7.955 57.210 C 8.343 56.905,9.157 55.760,9.778 54.647 C 10.175 53.936,10.500 52.632,10.500 51.752 C 10.500 51.441,10.575 51.140,10.667 51.083 C 10.875 50.955,10.899 17.560,10.691 17.432 C 10.613 17.383,10.501 16.885,10.442 16.324 C 10.383 15.764,10.232 15.105,10.105 14.861 C 9.978 14.617,9.771 14.192,9.645 13.917 C 9.252 13.056,8.075 11.667,7.739 11.667 C 7.617 11.667,7.457 11.569,7.383 11.451 C 7.186 11.131,6.123 10.553,5.479 10.415 C 5.170 10.349,4.832 10.226,4.728 10.143 C 4.480 9.944,2.512 9.812,2.083 9.965 M45.333 9.955 C 45.104 9.997,44.842 10.093,44.750 10.168 C 44.658 10.242,44.302 10.356,43.958 10.420 C 43.615 10.485,43.333 10.604,43.333 10.685 C 43.333 10.767,43.227 10.833,43.096 10.833 C 42.966 10.833,42.636 11.021,42.364 11.250 C 42.091 11.479,41.801 11.667,41.718 11.667 C 41.440 11.667,39.779 13.875,39.587 14.500 C 39.517 14.729,39.398 14.994,39.322 15.089 C 38.900 15.621,38.836 18.162,38.838 34.250 C 38.840 50.125,38.905 52.813,39.310 53.627 C 39.390 53.786,39.653 54.338,39.895 54.852 C 40.513 56.164,42.071 57.811,43.271 58.420 C 43.810 58.693,44.288 58.958,44.333 59.008 C 44.475 59.163,45.765 59.500,46.218 59.500 C 46.454 59.500,46.693 59.575,46.750 59.667 C 46.807 59.758,47.107 59.833,47.417 59.833 C 47.727 59.833,48.027 59.758,48.083 59.667 C 48.140 59.575,48.317 59.500,48.477 59.500 C 48.637 59.500,49.008 59.252,49.302 58.949 L 49.836 58.398 49.793 47.074 L 49.750 35.750 45.285 35.706 L 40.821 35.661 40.869 25.872 C 40.913 16.918,40.941 16.041,41.207 15.583 C 41.367 15.308,41.498 14.987,41.499 14.869 C 41.502 14.249,43.779 12.369,44.769 12.169 C 45.308 12.060,45.880 11.903,46.039 11.819 C 46.549 11.551,46.961 11.654,47.487 12.179 L 48.000 12.692 48.000 22.596 L 48.000 32.500 48.917 32.500 L 49.833 32.500 49.833 22.347 C 49.833 10.953,49.921 11.755,48.562 10.667 C 47.584 9.883,46.739 9.697,45.333 9.955 M160.417 18.542 C 160.475 18.748,160.640 19.179,160.784 19.500 C 160.927 19.821,161.145 20.308,161.267 20.583 C 161.389 20.858,161.537 21.290,161.596 21.542 C 161.655 21.794,161.758 22.000,161.825 22.000 C 161.892 22.000,162.039 22.412,162.152 22.917 C 162.265 23.421,162.417 23.833,162.491 23.833 C 162.565 23.833,162.670 24.058,162.725 24.333 C 162.780 24.608,162.981 25.190,163.172 25.625 C 163.362 26.060,163.584 26.567,163.664 26.750 C 163.744 26.933,163.900 27.383,164.010 27.750 C 164.120 28.117,164.266 28.492,164.333 28.583 C 164.401 28.675,164.550 29.039,164.663 29.391 C 164.777 29.744,164.974 30.231,165.101 30.474 C 165.227 30.718,165.334 31.029,165.338 31.167 C 165.341 31.304,165.454 31.562,165.589 31.740 C 165.723 31.918,165.833 32.166,165.833 32.291 C 165.833 32.416,165.985 32.852,166.171 33.259 C 166.356 33.667,166.553 34.225,166.608 34.500 C 166.663 34.775,166.766 35.000,166.836 35.000 C 166.906 35.000,167.011 35.257,167.070 35.571 C 167.129 35.885,167.244 36.167,167.325 36.196 C 167.406 36.226,167.524 36.531,167.588 36.875 L 167.704 37.500 160.330 37.500 L 152.956 37.500 153.056 36.888 C 153.110 36.552,153.223 36.233,153.306 36.180 C 153.390 36.127,153.512 35.821,153.579 35.500 C 153.645 35.179,153.795 34.766,153.911 34.581 C 154.028 34.396,154.179 33.984,154.247 33.664 C 154.316 33.345,154.428 33.008,154.498 32.917 C 154.567 32.825,154.714 32.450,154.826 32.083 C 154.938 31.717,155.135 31.179,155.266 30.888 C 155.396 30.598,155.549 30.129,155.606 29.847 C 155.662 29.564,155.774 29.333,155.854 29.333 C 155.934 29.333,156.000 29.217,156.000 29.074 C 156.000 28.932,156.143 28.500,156.318 28.116 C 156.493 27.731,156.689 27.135,156.754 26.790 C 156.818 26.445,156.936 26.123,157.014 26.074 C 157.093 26.026,157.238 25.670,157.337 25.285 C 157.435 24.899,157.619 24.358,157.746 24.083 C 158.231 23.028,158.479 22.399,158.596 21.928 C 158.663 21.659,158.819 21.246,158.941 21.011 C 159.064 20.776,159.167 20.471,159.171 20.333 C 159.174 20.196,159.282 19.945,159.410 19.776 C 159.538 19.607,159.692 19.176,159.753 18.818 C 159.874 18.098,160.247 17.942,160.417 18.542 " stroke="none" fill="#ffffff" fill-rule="evenodd"></path>
</svg>