<?xml version="1.0" standalone="no"?>
<!DOCTYPE svg PUBLIC "-//W3C//DTD SVG 20010904//EN"
 "http://www.w3.org/TR/2001/REC-SVG-20010904/DTD/svg10.dtd">
<svg version="1.0" xmlns="http://www.w3.org/2000/svg"
 width="1614.000000pt" height="2479.000000pt" viewBox="0 0 1614.000000 2479.000000"
 preserveAspectRatio="xMidYMid meet">
<g transform="translate(0.000000,2479.000000) scale(0.100000,-0.100000)"
fill="#ffffff" stroke="none">
<path d="M6005 24224 c-764 -119 -1370 -695 -1524 -1450 -28 -138 -43 -345
-30 -424 28 -174 167 -318 338 -350 74 -14 6478 -14 6551 0 166 31 305 167
339 328 29 141 -6 418 -83 659 -46 141 -157 361 -243 483 -76 106 -241 282
-342 364 -201 163 -456 291 -709 355 -207 53 -139 51 -2248 50 -1622 -1 -1974
-3 -2049 -15z"/>
<path d="M5806 21434 c-325 -50 -624 -198 -858 -423 -299 -286 -464 -632 -498
-1039 -14 -164 -13 -13757 0 -13911 13 -140 32 -239 71 -356 177 -530 632
-923 1179 -1016 112 -19 172 -19 2410 -16 l2295 3 90 22 c133 33 208 59 324
113 479 224 808 690 861 1216 8 76 10 977 8 3023 l-3 2915 -26 67 c-65 168
-180 279 -349 340 l-65 23 -891 3 c-992 3 -971 4 -1113 -63 -96 -46 -201 -150
-248 -246 -67 -136 -63 31 -63 -2382 0 -1946 -2 -2192 -15 -2224 -20 -48 -41
-71 -87 -94 -34 -17 -62 -19 -329 -19 -277 0 -295 1 -336 21 -30 15 -52 35
-71 67 l-27 47 -3 2070 c-2 1361 1 2127 8 2237 27 444 156 830 395 1188 389
583 971 946 1685 1051 41 6 305 14 585 18 l510 7 68 27 c186 73 323 230 363
416 21 102 21 5368 -1 5533 -95 719 -642 1275 -1360 1383 -87 13 -384 15
-2260 14 -1783 -1 -2175 -3 -2249 -15z"/>
<path d="M1400 21295 c-325 -67 -589 -299 -696 -612 -18 -54 -38 -136 -44
-183 -7 -57 -10 -1029 -10 -2992 l0 -2908 285 0 285 0 2 2943 3 2942 27 57
c34 74 112 152 186 186 55 26 63 27 222 26 130 0 187 -5 270 -23 578 -123
1033 -506 1248 -1051 36 -91 57 -164 85 -290 l21 -95 3 -2812 3 -2813 -1320 0
-1320 0 3 -3297 c2 -3009 4 -3303 19 -3350 67 -216 204 -356 418 -429 46 -16
84 -19 230 -19 971 3 1891 597 2320 1498 146 308 224 604 250 952 8 108 10
1568 8 5170 -3 4760 -4 5025 -21 5125 -84 496 -268 883 -588 1239 -297 332
-752 597 -1191 695 -242 54 -547 72 -698 41z"/>
<path d="M14320 21304 c-572 -70 -1042 -300 -1430 -700 -355 -366 -568 -809
-635 -1317 -13 -105 -15 -678 -15 -5190 0 -5480 -3 -5174 51 -5424 64 -302
186 -608 339 -853 143 -229 379 -497 585 -663 378 -305 833 -499 1330 -569 50
-6 169 -12 265 -13 158 0 182 2 248 24 179 58 324 200 390 381 l27 75 3 3308
2 3307 -1320 0 -1320 0 3 2798 c4 3042 -1 2819 57 3041 118 460 450 863 885
1077 246 120 433 166 685 168 l165 1 67 -33 c82 -40 157 -119 190 -200 l23
-57 3 -2932 2 -2933 280 0 280 0 -2 2973 -3 2972 -28 89 c-101 323 -333 554
-649 647 -61 18 -103 22 -258 24 -102 2 -201 1 -220 -1z"/>
<path d="M1935 3689 c-569 -77 -1043 -468 -1214 -1002 -48 -151 -65 -262 -65
-432 1 -390 141 -724 423 -1006 255 -255 562 -397 924 -429 374 -33 757 85
1054 324 323 261 533 681 533 1069 l0 87 -900 0 -900 0 0 -245 0 -245 561 -2
560 -3 -49 -70 c-139 -197 -354 -336 -587 -380 -119 -23 -317 -16 -423 15
-340 97 -593 368 -664 710 -16 77 -19 120 -15 225 9 245 90 436 256 608 117
122 249 202 417 253 82 25 103 28 254 28 151 0 173 -3 253 -27 174 -54 306
-135 430 -266 l75 -81 311 0 311 0 -34 68 c-71 140 -155 254 -280 378 -216
214 -452 342 -744 404 -113 24 -376 34 -487 19z"/>
<path d="M4787 3693 c-5 -8 -1160 -2813 -1178 -2860 l-9 -23 304 0 303 0 130
383 130 382 500 3 499 2 120 -376 c65 -207 122 -380 125 -385 3 -5 128 -8 306
-7 l300 3 -543 1330 c-299 732 -564 1381 -590 1443 l-46 112 -174 0 c-95 0
-175 -3 -177 -7z m332 -1198 c88 -228 161 -420 161 -425 0 -6 -115 -10 -321
-10 -306 0 -320 1 -317 18 5 32 303 832 309 832 3 0 79 -187 168 -415z"/>
<path d="M6580 2255 l0 -1445 295 0 295 0 0 983 c1 774 3 979 13 966 7 -9 263
-451 571 -983 l559 -966 293 0 294 0 0 1445 0 1445 -295 0 -295 0 -1 -982 c0
-928 -1 -982 -17 -959 -9 14 -265 455 -568 980 l-550 956 -297 3 -297 2 0
-1445z"/>
<path d="M9410 2255 l0 -1445 765 0 765 0 0 280 0 280 -500 0 -500 0 0 300 0
300 475 0 475 0 0 280 0 280 -475 0 -475 0 0 305 0 305 500 0 500 0 0 280 0
280 -765 0 -765 0 0 -1445z"/>
<path d="M11930 3685 c-195 -39 -379 -154 -496 -308 -184 -244 -218 -572 -88
-847 116 -245 290 -363 727 -491 237 -69 305 -118 358 -259 30 -79 24 -203
-13 -282 -34 -73 -98 -137 -174 -174 -52 -25 -70 -28 -154 -29 -82 0 -103 4
-150 26 -30 15 -74 43 -97 63 -47 41 -113 162 -113 207 0 62 14 59 -291 59
l-279 0 6 -57 c9 -77 48 -212 80 -276 84 -165 235 -313 409 -399 147 -73 272
-101 445 -100 268 1 504 103 686 295 240 251 297 611 147 912 -128 256 -352
420 -783 575 -174 63 -208 80 -249 121 -58 58 -76 104 -76 199 0 98 18 141 82
201 64 61 97 74 193 74 95 0 141 -18 200 -77 40 -40 80 -122 80 -165 l0 -33
260 0 260 0 0 38 c0 116 -88 328 -185 445 -189 228 -499 340 -785 282z"/>
<path d="M13340 2255 l0 -1445 270 0 270 0 0 580 0 580 480 0 480 0 0 -580 0
-580 285 0 285 0 0 1445 0 1445 -285 0 -285 0 0 -585 0 -585 -480 0 -480 0 0
585 0 585 -270 0 -270 0 0 -1445z"/>
</g>
</svg>
