<svg version="1" xmlns="http://www.w3.org/2000/svg" width="4406.667" height="4406.667" viewBox="0 0 3305.000000 3305.000000"><path d="M1451.7 73.6c-.1.1-16.4.4-36.2.7-19.8.3-37.3.8-39 1.1-1.6.4-4.6.9-6.5 1.2-7.1 1.2-8.7 1.6-18 4.1-12.1 3.2-23.4 7.1-35.7 12.3-10.8 4.6-25.9 12.4-28.4 14.6-.8.8-1.9 1.4-2.3 1.4-.5 0-5.2 3-10.5 6.6-8.6 6-12.5 9-22.6 17.4-6.4 5.3-23.5 23.1-29.9 31.1-15.8 19.8-27.4 39.8-36.6 63.5-5.4 13.7-5.4 13.7-7.4 20.9-1 3.3-2.1 7.3-2.6 9-4.1 14.2-6.5 34-6.5 54.5 0 12.6.4 16.6 1.9 21.3 5.7 17.3 21.1 32.4 38.1 37.3 8.3 2.3 28.2 2.4 443 2.4 385.5 0 432.7-.2 439.5-2 9.3-2.5 17.3-7.2 25.1-15 15.1-14.9 19.2-29.4 16.6-59.5-.4-4.4-.9-9.1-1.1-10.5-.3-1.4-.7-4.1-1-6-2.5-16.5-9.4-41.4-15.4-55-15.8-36.3-29.8-56.7-58.2-84.8-28.6-28.4-68.3-50.1-110.9-60.7-13.9-3.5-18.7-4.1-40.8-5.1-11.8-.6-454-1.3-454.6-.8zM1438.7 445.6c-.1.1-19.5.4-43.2.8-23.6.3-44.1.7-45.5 1-14.2 2.4-33.4 7.4-42.5 11.1-2.2.9-5.3 2.2-7 2.8-6.2 2.5-25.9 12.9-32.8 17.3-24.5 15.8-47.8 39.1-64.4 63.9-6.2 9.4-6.8 10.5-13.8 24.5-5.1 10.2-12.4 29.9-13.9 37.5-.2.5-.8 3.5-1.4 6.5-4.3 19.4-4.9 27.2-5.3 64.5-.4 40.2-.4 1687.8 0 1770.5.2 51.4.7 59.3 4.5 79.2 2.6 13.4 13.4 42.1 18.8 50 1 1.4 1.8 3 1.8 3.6 0 1.1 15 23.7 18.2 27.3 1.3 1.5 4 4.7 6.2 7.3 4.9 5.9 17.4 18.1 25.1 24.4 12.6 10.3 35 23.7 49 29.3 14.6 5.9 23.2 8.5 39.5 12.1l10.5 2.3 310.3.1c269.5.1 311.1-.1 316-1.4 27.4-7.1 42.2-12.4 59-21.3 27.4-14.6 52.3-36.9 70.8-63.5 5.1-7.3 5.8-8.4 10.9-17.4 7-12.5 17.3-38.9 19-48.9.3-1.9.8-3.8 1-4.1.3-.4.7-2.5 1.1-4.6.3-2.2.8-5.3 1-6.9.3-1.7.9-5 1.3-7.5 1.3-8.1 1.5-70.2 1.3-435.7l-.1-360.2-3-7.8c-9.5-24.4-27.1-40.9-51.1-48-6.2-1.8-11.3-1.9-120-2-104.2-.1-124 .3-135.5 2.2-6.2 1-18.6 6.8-25.8 11.9-12.3 8.8-25.3 26.1-28.3 37.8-3.3 12.5-3.5 27.9-3.9 323.8-.2 144.9-.6 266.8-.9 270.8-.7 8.8-2.5 13.4-6.7 17-4.8 4.1-6.9 5-12.9 5.8-6.9.9-57.1 1.1-69.5.3-12.6-.8-17.1-3.6-23.2-14.1l-2.2-3.9.3-288.2c.1-158.5.5-290 .9-292.2.3-2.2.9-6.9 1.2-10.5.7-7.6 3.6-25.4 5.1-32 .3-1.4.8-3.6 1-5 1.5-8.1 9.8-35.5 12.8-42.5.8-1.6 2.1-4.8 2.9-7 3.3-8.7 14.9-31.4 23.2-45.3 1.8-2.9 11-16.7 11.5-17.2.3-.3 2.3-3 4.5-6 4-5.6 9.3-12.3 15.5-19.5 6.5-7.6 30.5-31.1 38-37.1 39.6-32.1 83.8-53.3 135.1-64.8 6.3-1.4 13.1-2.8 15.3-3.2 2.1-.3 4.8-.8 6-1 6.4-1.3 29.8-2.2 79.1-3 80.7-1.3 71.9-.6 85-6.4 20.7-9.3 38.1-29.6 43.7-51 1.7-6.6 2.3-98.8 2.2-372.5 0-249-.6-365.9-1.8-369.6-.3-.8-.7-3.1-1-5.1-3.8-26.1-15.9-57.8-31.1-81.3-11.4-17.8-28.2-37-42-48-2.7-2.2-5.9-4.8-7-5.8-2.9-2.7-20.1-13.9-26.5-17.4-3-1.6-6.4-3.5-7.5-4.1-6.5-3.8-32.7-13.8-41.2-15.7-1-.2-4.5-1.1-7.8-1.9-3.3-.8-7.6-1.7-9.5-2-1.9-.3-4.6-.8-6-1.1-7.5-1.5-47-1.8-269.8-1.9-134.4-.1-244.4 0-244.5 0zM770.5 464.7c-5.6.7-16.9 3.4-23 5.4-7.2 2.4-22.9 9.8-23.3 11-.2.5-.8.9-1.4.9-1.7 0-13.5 8.8-20.3 15.1-19.7 18.5-32.3 42.2-38 71.4-.3 1.6-.8 23.7-1.1 49-.6 52.2-1.1 735.9-.6 739 .3 2 1 2 38 2h37.7l.2-101.5c.1-55.8.2-232.2.3-392l.2-290.5 3.5-7.5c4.5-9.3 14.8-19.9 24.3-25l6.5-3.5h22c23.4 0 25.6.2 40.5 3.3 22 4.7 51.2 16.1 67.8 26.6 2.3 1.4 4.4 2.6 4.7 2.6.2 0 4.4 2.8 9.2 6.2 31.5 22.2 55.3 49.5 72.4 83 9.9 19.5 14.7 33 20.4 57.5l3.4 14.8.3 375 .3 375H838.8c-175.2 0-175.8 0-175.9 2-.2 9.4.3 633 .6 729.5.5 142.4.7 151.3 3.5 158.6 5.2 13.9 11.3 23.8 20 32.5 12.4 12.3 30 21.2 45 22.7 14.2 1.4 44.5.3 61-2.3 1.9-.3 5.4-.7 7.8-1 2.4-.3 5.3-.7 6.5-1 1.2-.3 3.3-.7 4.7-.9 43.2-8 90.9-28 129.5-54.4 18.4-12.6 33.1-24.9 50.5-42.2 13.3-13.3 16.6-16.9 27.3-30.5 4.8-6.1 9.1-11.5 9.6-12.1 2.3-2.9 18.2-27.6 21.1-32.9 7.3-13.1 16.1-31.7 21.4-45.1 4.8-12.4 13.3-39.2 15-47.9.4-1.7.8-3.9 1-5 .2-1.1 1.1-5.4 1.9-9.5.9-4.1 1.9-10 2.2-13 2.7-21.4 3.2-27.6 3.5-45 .7-32.8.4-1230.8-.3-1289.5-.7-57.3-.9-62.5-3.2-74-.8-3.9-1.6-8.1-1.8-9.5-.9-4.9-5.7-22.7-8.6-32.2-6.4-20.9-17.9-46.7-28.2-63.6-2.4-4-4.9-8.1-5.4-9-16-26.6-45.9-59.3-72.3-78.9-4.2-3.2-7.9-6-8.2-6.3-.8-.9-14-9.5-21.2-13.9-13.2-8-32.3-17.3-49.3-24.1-17.2-6.9-40.6-13.3-56.5-15.5-1.4-.2-3.8-.6-5.5-.9-1.6-.3-5.2-.8-8-1.1-2.7-.3-6.6-.7-8.5-1.1-4.4-.6-43.4-1.3-47.5-.7zM2479.4 465.6c-14.3 2.1-16.8 2.5-23.9 4.1-3.8.8-8 1.6-9.2 1.9-1.2.2-7.8 2-14.5 3.9-37.4 10.7-69.7 26.8-100.3 49.9-4.4 3.3-8.5 6.5-9.1 7.1-.6.5-4 3.5-7.5 6.5-12.9 11-30.7 29.7-42 44-18.3 23.1-33 48.8-44 77-4.1 10.4-5.5 14.4-7.4 21-.1.3-.9 3-1.8 6-2.5 8.3-7.2 29.4-8.3 37.5-.3 2.2-.8 5.1-1 6.5-.3 1.4-.8 10.6-1.2 20.5-.9 25.1-.9 1290.4.1 1331.5 1 44.1 1.1 46.1 5.7 66.1 3.8 16.8 4.1 18.1 8 30.9 3.6 11.9 11.8 34 13.1 35.5.5.5.9 1.5.9 2.3 0 2 13.1 28 20 39.5 7.9 13.3 26.1 38.4 33.5 46.3.5.6 3.9 4.4 7.5 8.5 26.9 30.3 57.6 54.7 93.7 74.3 6.7 3.6 12.4 6.6 12.7 6.6.3 0 4.2 1.8 8.8 3.9 15.4 7.3 39.9 16.2 56.8 20.6 7.5 2 6.1 1.6 21 4.8 10.2 2.2 14 2.9 24 4.3 16.7 2.3 55 2.3 63.9-.1 14.2-3.7 26.7-11 37.2-21.6 9.6-9.8 14.7-18 21-33.9l2.2-5.5.3-441.5.4-441.5h-351.5l.1-317c.1-288.3.7-421.9 1.8-430 .2-1.7.7-6.1 1-9.9 1.2-14.1 10.6-43.6 20-62.6 4.5-9.2 15.3-27.3 18.5-31.2.6-.7 4.3-5.4 8.2-10.3 14-17.8 38.8-39.6 57.9-51.1 24.2-14.6 57.8-27.6 77.6-29.8 2.7-.4 6-.9 7.4-1.2 1.4-.2 12.4-.7 24.5-1.1l22-.5 7 3.7c13.6 7.2 21 14.8 26.9 27.6l3.4 7.4.2 294c.2 432.3.3 487.5.9 487.6.3.1 17.1.2 37.3.3l36.8.1-.4-397-.4-397-4.1-11.9c-7.4-21-16.2-36.1-29.2-50-18.6-20-48.2-35.4-71-37.2-14.9-1.1-47.2-1-55.5.2zM1222.3 2811.8c-8.9.4-6.8-2.8-20.8 31.7-2 4.9-4.2 10.3-5 12-.7 1.6-7.7 18.5-15.4 37.5-7.8 19-14.6 35.4-15.1 36.5-.5 1.1-3.2 7.6-6 14.5s-5.5 13.4-6 14.5c-.5 1.1-2.5 5.8-4.4 10.5-5.1 12.8-15.5 38.1-17.2 41.7-.7 1.7-1.4 3.4-1.4 3.7 0 .3-.9 2.5-1.9 4.9-1.8 3.8-6.8 16.1-18.3 44.2-2.2 5.5-4.6 11.3-5.3 13-.7 1.6-2.3 5.5-3.5 8.5-1.2 3-2.8 6.8-3.5 8.5-.7 1.6-3.9 9.3-7 17-3.1 7.7-6.2 15.3-7 17-.7 1.6-4.3 10.3-7.9 19.2-3.6 8.8-7 17.2-7.5 18.5-.6 1.2-3.7 8.8-7 16.8l-5.9 14.5 40.1.3c22 .1 40.2 0 40.5-.2.4-.5 8.3-23.5 26.5-77.3l8.2-24.3 20.5-.1c11.3 0 41.3-.1 66.6-.3l46.1-.2 1.1 3c.6 1.7 3.8 11.9 7.2 22.6 14.7 46.2 24.1 75.4 24.7 76 .4.5 80.3.8 80.3.3 0-.7-36.4-90.5-40.5-99.8-.7-1.7-4.8-11.6-9-22-4.2-10.5-8.3-20.4-9-22-.7-1.7-9.2-22.4-18.8-46-28.9-70.9-64.2-157.3-73.8-180.5l-6-14.5h-15.7c-8.6 0-19 .1-22.9.3zm16.7 111.9c1.2 3.2 3.3 8.2 4.6 11.1 1.3 2.9 2.4 5.7 2.4 6.2s1.1 3.3 2.4 6.2c2.5 5.6 4.1 9.5 13.8 34.8 3.3 8.5 8.2 21.3 11 28.5 6.5 16.9 6.9 18.3 5.5 18.8-1.6.6-16.2.9-44.7.9-32.5 0-36.3-.1-37.9-1.1-1.2-.8-.4-4 4.8-18.3 3.5-9.5 7.8-21.6 9.7-26.8 8.3-22.9 24.9-66 25.4-66 .4 0 1.7 2.6 3 5.7zM1455.8 2812l-2.5.5v192.2l.1 192.3h78.6v-86.3c0-71.7.4-146.7.9-169.2.1-4.5.2-4.8 1.5-3 1.9 2.8 35.6 60.5 35.6 61 0 .4 4.1 7.3 7.8 13 .6 1.1 1.5 2.6 1.9 3.4.3.8 3.5 6.4 7.1 12.5 3.6 6.1 7.4 12.7 8.5 14.6 1 1.9 4.1 7.2 6.8 11.8 2.7 4.5 4.9 8.5 4.9 8.8 0 .3.8 1.7 1.9 3.2 1 1.5 3.6 5.8 5.9 9.7 2.2 3.8 13.1 22.7 24.2 42 11.1 19.2 25.9 44.8 32.8 56.7l12.6 21.8h78.2v-192.7l-.1-192.7-39.3-.1H1684v38.5c0 42.8-.7 219.4-.9 219.7-.7 1.7-8.4-10.1-20.7-32.2-.6-1.1-6.1-10.6-12.1-21-46.5-80.3-70.4-121.8-73-126.5-1.7-3-6.8-11.7-11.2-19.4-4.5-7.6-8.1-14-8.1-14.3 0-.2-1.6-2.9-3.5-5.9-1.9-3-3.5-5.6-3.5-5.8 0-.2-4.2-7.5-9.2-16.2l-9.3-16-25-.2c-13.7-.2-30.4-.4-37.1-.5-6.6-.1-13.2 0-14.6.3zM1831.6 2812.6c-.8.7-1.1 57.3-.9 192 0 105 .2 191.2.2 191.6.1.5 45.9.8 101.9.8h101.9v-74.6l-65.9.1c-36.3 0-66.3-.2-66.7-.5-.4-.3-.7-18.2-.7-39.7-.1-35 .1-39.3 1.5-39.7.9-.2 29.4-.3 63.4-.2l61.7.1v-75l-63.3.1h-63.4l.1-40.5.1-40.6 64.5-.2c35.5 0 65.4-.1 66.6-.2 2.1-.1 2.1-.3 2.1-37.1v-37l-3.1-.1c-1.7 0-47.2-.1-101-.2-68.5-.2-98.3.1-99 .9zM2178.6 2812.2c-17.4 1.3-37.4 8.5-52.9 19-49.9 33.9-62.2 102.2-27.5 152.5 11.4 16.5 28.9 28.5 57.8 39.6 7.3 2.8 24.4 8.5 27.5 9.1 4.6 1 22.4 7.5 27.9 10.2 8.8 4.3 15 10.4 19.1 18.7 4.5 9.3 5.5 14.2 5.1 25.2-.6 17-7.8 29.7-22.1 39-8.2 5.3-13.6 6.7-26 6.7-12.6 0-17.6-1.5-27.6-8.3-9.4-6.3-18.7-21.2-19.7-31.1-.2-2.6-1.1-5.3-2-6-1.1-1-10.3-1.4-37.9-1.6l-36.3-.3.6 5.3c2.5 22.1 10.8 43 22.9 57.8 20.9 25.6 49.4 42 81.5 46.8 6 .9 31.2.9 37.5 0 27.9-3.9 51.8-15.9 71.5-35.7 18.7-18.9 28.8-38.8 32.5-64.1.9-5.6.8-21.2 0-26.5-.3-2.2-.8-5.1-.9-6.5-.5-4.1-4.6-17-7.3-22.9-8.9-19.7-23.5-36.8-42.3-49.7-18-12.4-31.6-18.8-75.1-35.4-8.1-3.1-15.6-6.7-18.5-8.9-5.7-4.3-10.9-11.5-12.5-17.4-1.1-4-1.4-17.9-.5-22.3 2-9.9 13.7-22.1 24.1-25.2 6.2-1.8 22.1-1 27.6 1.5s11.1 7.2 14.8 12.7c2.9 4.3 7 14.2 6.9 16.7-.3 4.7-2.1 4.5 34.8 4.5h34.6l-.5-7.8c-1.1-14.1-11.2-38.9-21.6-52.8-4.1-5.5-13.9-15.4-20.4-20.7-7.8-6.3-25-14.8-36.7-18.1-8.9-2.5-11.4-3-20-3.8-3.6-.3-6.9-.6-7.5-.8-.5-.1-5.5.2-10.9.6zM2354.9 2813c-.1.8-.2 87.6-.2 192.7l-.2 191.3h72.2l.1-74.8c0-41.1.1-75.8.1-77.2l.1-2.6 63.8.1h63.7l.2 76c0 41.8.1 76.6.2 77.2.1 1 8.4 1.3 37.9 1.3h37.9l-.2-192.3c-.1-105.7-.2-192.4-.3-192.7-.2-.4-70.1-.5-74.7-.1-.7.1-1 26.7-1 77.8v77.8h-127.9l.1-77.8V2812l-3.1-.1c-1.7 0-17.8-.1-35.9-.2-28.4-.2-32.7 0-32.8 1.3zM840.8 2812.5c-.2.1-3.2.5-6.8.9-21.3 2-53.6 13.1-75.5 25.9-4.8 2.8-10 6.1-10.5 6.7-.3.3-2.5 1.9-4.9 3.5-6.3 4.2-19.5 15.8-26.9 23.5-6.2 6.4-20.8 25.2-24.9 32-11.9 19.8-22.2 46.3-24.8 64.2-.4 2.4-.8 4.5-1 4.8-.8 1.3-1.9 19-1.9 30 .1 38.8 9.6 71.3 29.9 102 7 10.6 8.2 12.2 17.6 22.9 23.6 26.9 53 46.6 86.4 57.6 7.8 2.6 23.4 6.3 29.5 7 3 .4 5.7.8 6 1 1 .6 17.4 1.7 25.5 1.8 47.5.1 95.4-17.6 130.5-48.5 10-8.9 21.9-21.7 28.8-31.3 7.2-10 18.4-30.3 24.3-44 3.3-7.7 8.9-27.9 10.4-37.3 1.3-8.1 1.4-9.8 1.9-22.9.5-11.9.4-13.2-1.2-13.6-.9-.3-55-.4-120.1-.3l-118.5.1-.1 31.5c0 17.3.1 32 .3 32.6.2.7 15.4 1.1 49 1.3 98.7.4 100.1.5 99.5 1.6-4.9 8.5-23.1 28.8-31.5 35-.7.5-2.9 2.2-4.8 3.6-8.4 6.3-30.7 16.6-39.2 18.3-1.3.2-4.3 1-6.8 1.6-6.1 1.6-36.7 2.1-46 .8-14-1.9-34.9-10.2-47.7-18.9-17.8-12-32.4-28.6-41.7-47.4-2.8-5.5-5.3-10.9-5.7-12-1.9-5.2-4.9-15.6-6-21-1.9-9.5-1.6-37.8.6-47.5.3-1.4.7-3.8 1-5.3.3-1.5 1.7-6.2 3-10.5 10.6-32.7 40.6-64 72.5-75.2 3.6-1.3 7-2.7 7.5-3 .6-.4 4.4-1.6 8.5-2.6 6.1-1.5 11.4-1.9 28-1.9 11.3 0 22.4.3 24.8.7 11.9 2 37.7 13.1 46.7 20 4 3 16.4 13.7 18.5 15.9 1.4 1.5 4.7 5 7.3 7.8l4.8 5.1h83.1l-5.6-10.6c-9.9-18.7-20.6-32.9-36.5-48.6-24-23.7-47.6-38.4-77.6-48.3-8.7-2.9-22.4-6.1-29-6.9-2.7-.3-7-.9-9.5-1.2-4.8-.6-40.6-1.4-41.2-.9z"/></svg>